<svg width="150" height="76" viewBox="0 0 150 76" fill="none" xmlns="http://www.w3.org/2000/svg">
<path d="M68.225 25.225H73.975V28H64.725V10.55H68.225V25.225ZM84.2996 28.175C82.6663 28.175 81.1663 27.7917 79.7996 27.025C78.4329 26.2583 77.3496 25.2 76.5496 23.85C75.7496 22.4833 75.3496 20.9417 75.3496 19.225C75.3496 17.525 75.7496 16 76.5496 14.65C77.3496 13.2833 78.4329 12.2167 79.7996 11.45C81.1663 10.6833 82.6663 10.3 84.2996 10.3C85.9496 10.3 87.4496 10.6833 88.7996 11.45C90.1663 12.2167 91.2413 13.2833 92.0246 14.65C92.8246 16 93.2246 17.525 93.2246 19.225C93.2246 20.9417 92.8246 22.4833 92.0246 23.85C91.2413 25.2 90.1663 26.2583 88.7996 27.025C87.4329 27.7917 85.9329 28.175 84.2996 28.175ZM84.2996 25.05C85.3496 25.05 86.2746 24.8167 87.0746 24.35C87.8746 23.8667 88.4996 23.1833 88.9496 22.3C89.3996 21.4167 89.6246 20.3917 89.6246 19.225C89.6246 18.0583 89.3996 17.0417 88.9496 16.175C88.4996 15.2917 87.8746 14.6167 87.0746 14.15C86.2746 13.6833 85.3496 13.45 84.2996 13.45C83.2496 13.45 82.3163 13.6833 81.4996 14.15C80.6996 14.6167 80.0746 15.2917 79.6246 16.175C79.1746 17.0417 78.9496 18.0583 78.9496 19.225C78.9496 20.3917 79.1746 21.4167 79.6246 22.3C80.0746 23.1833 80.6996 23.8667 81.4996 24.35C82.3163 24.8167 83.2496 25.05 84.2996 25.05ZM101.854 28.175C100.637 28.175 99.5368 27.9667 98.5535 27.55C97.5868 27.1333 96.8202 26.5333 96.2535 25.75C95.6868 24.9667 95.3952 24.0417 95.3785 22.975H99.1285C99.1785 23.6917 99.4285 24.2583 99.8785 24.675C100.345 25.0917 100.979 25.3 101.779 25.3C102.595 25.3 103.237 25.1083 103.704 24.725C104.17 24.325 104.404 23.8083 104.404 23.175C104.404 22.6583 104.245 22.2333 103.929 21.9C103.612 21.5667 103.212 21.3083 102.729 21.125C102.262 20.925 101.612 20.7083 100.779 20.475C99.6452 20.1417 98.7202 19.8167 98.0035 19.5C97.3035 19.1667 96.6952 18.675 96.1785 18.025C95.6785 17.3583 95.4285 16.475 95.4285 15.375C95.4285 14.3417 95.6868 13.4417 96.2035 12.675C96.7202 11.9083 97.4452 11.325 98.3785 10.925C99.3118 10.5083 100.379 10.3 101.579 10.3C103.379 10.3 104.837 10.7417 105.954 11.625C107.087 12.4917 107.712 13.7083 107.829 15.275H103.979C103.945 14.675 103.687 14.1833 103.204 13.8C102.737 13.4 102.112 13.2 101.329 13.2C100.645 13.2 100.095 13.375 99.6785 13.725C99.2785 14.075 99.0785 14.5833 99.0785 15.25C99.0785 15.7167 99.2285 16.1083 99.5285 16.425C99.8452 16.725 100.229 16.975 100.679 17.175C101.145 17.3583 101.795 17.575 102.629 17.825C103.762 18.1583 104.687 18.4917 105.404 18.825C106.12 19.1583 106.737 19.6583 107.254 20.325C107.77 20.9917 108.029 21.8667 108.029 22.95C108.029 23.8833 107.787 24.75 107.304 25.55C106.82 26.35 106.112 26.9917 105.179 27.475C104.245 27.9417 103.137 28.175 101.854 28.175ZM122.938 10.55V13.375H118.288V28H114.788V13.375H110.138V10.55H122.938Z" fill="#ED66B2"/>
<path d="M75.5 48.55V51.375H68.225V55.85H73.8V58.625H68.225V66H64.725V48.55H75.5ZM86.0818 66.175C84.4485 66.175 82.9485 65.7917 81.5818 65.025C80.2152 64.2583 79.1318 63.2 78.3318 61.85C77.5318 60.4833 77.1318 58.9417 77.1318 57.225C77.1318 55.525 77.5318 54 78.3318 52.65C79.1318 51.2833 80.2152 50.2167 81.5818 49.45C82.9485 48.6833 84.4485 48.3 86.0818 48.3C87.7318 48.3 89.2318 48.6833 90.5818 49.45C91.9485 50.2167 93.0235 51.2833 93.8068 52.65C94.6068 54 95.0068 55.525 95.0068 57.225C95.0068 58.9417 94.6068 60.4833 93.8068 61.85C93.0235 63.2 91.9485 64.2583 90.5818 65.025C89.2152 65.7917 87.7152 66.175 86.0818 66.175ZM86.0818 63.05C87.1318 63.05 88.0568 62.8167 88.8568 62.35C89.6568 61.8667 90.2818 61.1833 90.7318 60.3C91.1818 59.4167 91.4068 58.3917 91.4068 57.225C91.4068 56.0583 91.1818 55.0417 90.7318 54.175C90.2818 53.2917 89.6568 52.6167 88.8568 52.15C88.0568 51.6833 87.1318 51.45 86.0818 51.45C85.0318 51.45 84.0985 51.6833 83.2818 52.15C82.4818 52.6167 81.8568 53.2917 81.4068 54.175C80.9568 55.0417 80.7318 56.0583 80.7318 57.225C80.7318 58.3917 80.9568 59.4167 81.4068 60.3C81.8568 61.1833 82.4818 61.8667 83.2818 62.35C84.0985 62.8167 85.0318 63.05 86.0818 63.05ZM101.061 48.55V59.35C101.061 60.5333 101.369 61.4417 101.986 62.075C102.602 62.6917 103.469 63 104.586 63C105.719 63 106.594 62.6917 107.211 62.075C107.827 61.4417 108.136 60.5333 108.136 59.35V48.55H111.661V59.325C111.661 60.8083 111.336 62.0667 110.686 63.1C110.052 64.1167 109.194 64.8833 108.111 65.4C107.044 65.9167 105.852 66.175 104.536 66.175C103.236 66.175 102.052 65.9167 100.986 65.4C99.9357 64.8833 99.1024 64.1167 98.4857 63.1C97.8691 62.0667 97.5607 60.8083 97.5607 59.325V48.55H101.061ZM129.967 66H126.467L118.542 54.025V66H115.042V48.525H118.542L126.467 60.525V48.525H129.967V66ZM139.526 48.55C141.36 48.55 142.968 48.9083 144.351 49.625C145.751 50.3417 146.826 51.3667 147.576 52.7C148.343 54.0167 148.726 55.55 148.726 57.3C148.726 59.05 148.343 60.5833 147.576 61.9C146.826 63.2 145.751 64.2083 144.351 64.925C142.968 65.6417 141.36 66 139.526 66H133.426V48.55H139.526ZM139.401 63.025C141.235 63.025 142.651 62.525 143.651 61.525C144.651 60.525 145.151 59.1167 145.151 57.3C145.151 55.4833 144.651 54.0667 143.651 53.05C142.651 52.0167 141.235 51.5 139.401 51.5H136.926V63.025H139.401Z" fill="#44C5E1"/>
<path d="M67.97 40.67H65.19L64.73 42H63.26L65.77 35.01H67.4L69.91 42H68.43L67.97 40.67ZM67.59 39.55L66.58 36.63L65.57 39.55H67.59ZM76.8182 42H75.4182L72.2482 37.21V42H70.8482V35.01H72.2482L75.4182 39.81V35.01H76.8182V42ZM80.6417 35.02C81.3751 35.02 82.0184 35.1633 82.5717 35.45C83.1317 35.7367 83.5617 36.1467 83.8617 36.68C84.1684 37.2067 84.3217 37.82 84.3217 38.52C84.3217 39.22 84.1684 39.8333 83.8617 40.36C83.5617 40.88 83.1317 41.2833 82.5717 41.57C82.0184 41.8567 81.3751 42 80.6417 42H78.2017V35.02H80.6417ZM80.5917 40.81C81.3251 40.81 81.8917 40.61 82.2917 40.21C82.6917 39.81 82.8917 39.2467 82.8917 38.52C82.8917 37.7933 82.6917 37.2267 82.2917 36.82C81.8917 36.4067 81.3251 36.2 80.5917 36.2H79.6017V40.81H80.5917Z" fill="#FFFDFD"/>
<path d="M0 24.1111V53.2778C0 58.6472 4.35279 63 9.72222 63H46.2778C51.6472 63 56 58.6472 56 53.2778V16.7222C56 11.3528 51.6472 7 46.2778 7H17.1081V10.8889H17.1111V24.1111H0ZM3.88889 42V28H17.1111V42H3.88889ZM3.88889 53.2778V45.8889H17.1111V59.1111H9.72222C6.50056 59.1111 3.88889 56.4994 3.88889 53.2778ZM35 59.1111H21V45.8889H35V59.1111ZM46.2778 59.1111H38.8889V45.8889H52.1111V53.2778C52.1111 56.4994 49.4994 59.1111 46.2778 59.1111ZM52.1111 28V42H38.8889V28H52.1111ZM52.1111 16.7222V24.1111L38.8889 24.1111V10.8889H46.2778C49.4994 10.8889 52.1111 13.5006 52.1111 16.7222ZM21 10.8889H35V24.1111H21V10.8889ZM35 28V42H21V28H35Z" fill="url(#paint0_linear)"/>
<path d="M0 24.1111V53.2778C0 58.6472 4.35279 63 9.72222 63H46.2778C51.6472 63 56 58.6472 56 53.2778V16.7222C56 11.3528 51.6472 7 46.2778 7H17.1081V10.8889H17.1111V24.1111H0ZM3.88889 42V28H17.1111V42H3.88889ZM3.88889 53.2778V45.8889H17.1111V59.1111H9.72222C6.50056 59.1111 3.88889 56.4994 3.88889 53.2778ZM35 59.1111H21V45.8889H35V59.1111ZM46.2778 59.1111H38.8889V45.8889H52.1111V53.2778C52.1111 56.4994 49.4994 59.1111 46.2778 59.1111ZM52.1111 28V42H38.8889V28H52.1111ZM52.1111 16.7222V24.1111L38.8889 24.1111V10.8889H46.2778C49.4994 10.8889 52.1111 13.5006 52.1111 16.7222ZM21 10.8889H35V24.1111H21V10.8889ZM35 28V42H21V28H35Z" fill="url(#paint1_linear)"/>
<defs>
<linearGradient id="paint0_linear" x1="28" y1="7" x2="28" y2="63" gradientUnits="userSpaceOnUse">
<stop stop-color="#ED66B2"/>
<stop offset="1" stop-color="#ED66B2" stop-opacity="0"/>
</linearGradient>
<linearGradient id="paint1_linear" x1="28" y1="7" x2="28" y2="63" gradientUnits="userSpaceOnUse">
<stop offset="0.0357143" stop-color="#44C5E1" stop-opacity="0"/>
<stop offset="1" stop-color="#44C5E1"/>
</linearGradient>
</defs>
</svg>
